<mxfile host="app.diagrams.net" modified="2024-04-18T22:28:02.983Z" agent="Mozilla/5.0 (Windows NT 10.0; Win64; x64) AppleWebKit/537.36 (KHTML, like Gecko) Chrome/123.0.0.0 Safari/537.36" version="24.2.3" etag="3bt8FALbgST-B2RsnegL" type="github">
  <diagram name="Page-1" id="BrScbW-2r7fkN1gww3ow">
    <mxGraphModel>
      <root>
        <mxCell id="0" />
        <mxCell id="1" parent="0" />
      </root>
    </mxGraphModel>
  </diagram>
</mxfile>
